<svg width="688" height="423" viewBox="0 0 688 423" fill="none" xmlns="http://www.w3.org/2000/svg">
<g clip-path="url(#clip0)">
<path d="M680.591 277.658H201.696C199.732 277.656 197.849 276.876 196.46 275.491C195.071 274.105 194.29 272.226 194.287 270.266V7.39188C194.29 5.43211 195.071 3.55324 196.46 2.16747C197.849 0.781707 199.732 0.00221295 201.696 0H680.591C682.555 0.00221295 684.439 0.781707 685.828 2.16747C687.217 3.55324 687.998 5.43211 688 7.39188V270.266C687.998 272.226 687.217 274.105 685.828 275.491C684.439 276.876 682.555 277.656 680.591 277.658Z" fill="#E6E6E6"/>
<path d="M670.488 267.578H211.8C209.835 267.576 207.952 266.797 206.563 265.411C205.174 264.025 204.393 262.146 204.391 260.186V17.4717C204.393 15.5119 205.174 13.6331 206.563 12.2473C207.952 10.8615 209.835 10.082 211.8 10.0798H670.488C672.452 10.082 674.335 10.8615 675.724 12.2473C677.113 13.6331 677.895 15.5119 677.897 17.4717V260.186C677.895 262.146 677.113 264.025 675.724 265.411C674.335 266.797 672.452 267.576 670.488 267.578Z" fill="white"/>
<path d="M340.151 159.839H253.856C252.903 159.838 251.989 159.46 251.315 158.787C250.641 158.115 250.262 157.203 250.261 156.252V66.5875C250.262 65.6364 250.641 64.7247 251.315 64.0522C251.989 63.3797 252.903 63.0014 253.856 63.0002H340.151C341.104 63.0014 342.018 63.3797 342.692 64.0522C343.367 64.7247 343.746 65.6364 343.747 66.5875V156.252C343.746 157.203 343.367 158.115 342.692 158.787C342.018 159.46 341.104 159.838 340.151 159.839ZM253.856 64.4351C253.284 64.4358 252.736 64.6627 252.332 65.0662C251.927 65.4698 251.7 66.0168 251.699 66.5875V156.252C251.7 156.822 251.927 157.37 252.332 157.773C252.736 158.177 253.284 158.404 253.856 158.404H340.151C340.723 158.404 341.272 158.177 341.676 157.773C342.08 157.37 342.308 156.822 342.309 156.252V66.5875C342.308 66.0168 342.08 65.4698 341.676 65.0662C341.272 64.6627 340.723 64.4358 340.151 64.4351H253.856Z" fill="#3F3D56"/>
<path d="M484.291 159.839H397.996C397.043 159.838 396.129 159.46 395.455 158.787C394.781 158.115 394.402 157.203 394.401 156.252V66.5875C394.402 65.6364 394.781 64.7247 395.455 64.0522C396.129 63.3797 397.043 63.0014 397.996 63.0002H484.291C485.244 63.0014 486.158 63.3797 486.832 64.0522C487.506 64.7247 487.886 65.6364 487.887 66.5875V156.252C487.886 157.203 487.506 158.115 486.832 158.787C486.158 159.46 485.244 159.838 484.291 159.839ZM397.996 64.4351C397.424 64.4358 396.876 64.6627 396.471 65.0662C396.067 65.4698 395.839 66.0168 395.839 66.5875V156.252C395.839 156.822 396.067 157.37 396.471 157.773C396.876 158.177 397.424 158.404 397.996 158.404H484.291C484.863 158.404 485.411 158.177 485.816 157.773C486.22 157.37 486.448 156.822 486.448 156.252V66.5875C486.448 66.0168 486.22 65.4698 485.816 65.0662C485.411 64.6627 484.863 64.4358 484.291 64.4351H397.996Z" fill="#3F3D56"/>
<path d="M628.431 159.839H542.136C541.183 159.838 540.269 159.46 539.595 158.787C538.921 158.115 538.542 157.203 538.541 156.252V66.5875C538.542 65.6364 538.921 64.7247 539.595 64.0522C540.269 63.3797 541.183 63.0014 542.136 63.0002H628.431C629.384 63.0014 630.298 63.3797 630.972 64.0522C631.646 64.7247 632.025 65.6364 632.027 66.5875V156.252C632.025 157.203 631.646 158.115 630.972 158.787C630.298 159.46 629.384 159.838 628.431 159.839ZM542.136 64.4351C541.564 64.4358 541.016 64.6627 540.611 65.0662C540.207 65.4698 539.979 66.0168 539.979 66.5875V156.252C539.979 156.822 540.207 157.37 540.611 157.773C541.016 158.177 541.564 158.404 542.136 158.404H628.431C629.003 158.404 629.551 158.177 629.956 157.773C630.36 157.37 630.588 156.822 630.588 156.252V66.5875C630.588 66.0168 630.36 65.4698 629.956 65.0662C629.551 64.6627 629.003 64.4358 628.431 64.4351H542.136Z" fill="#3F3D56"/>
<path d="M280.34 214.658C280.661 214.658 280.979 214.596 281.276 214.474C281.572 214.352 281.842 214.172 282.069 213.946C282.296 213.72 282.476 213.451 282.599 213.155C282.722 212.86 282.785 212.543 282.785 212.222C282.785 211.902 282.722 211.585 282.599 211.289C282.476 210.994 282.296 210.725 282.069 210.499C281.842 210.273 281.572 210.093 281.276 209.971C280.979 209.849 280.661 209.786 280.34 209.787H258.436C257.789 209.787 257.168 210.044 256.71 210.5C256.252 210.957 255.995 211.577 255.995 212.222C255.995 212.868 256.252 213.488 256.71 213.945C257.168 214.401 257.789 214.658 258.436 214.658H280.34Z" fill="#E6E6E6"/>
<path d="M335.571 200.309C336.219 200.309 336.84 200.052 337.297 199.595C337.755 199.139 338.012 198.519 338.012 197.873C338.012 197.227 337.755 196.608 337.297 196.151C336.84 195.694 336.219 195.438 335.571 195.438H258.436C257.789 195.438 257.168 195.694 256.71 196.151C256.252 196.608 255.995 197.227 255.995 197.873C255.995 198.519 256.252 199.139 256.71 199.595C257.168 200.052 257.789 200.309 258.436 200.309H335.571Z" fill="#E6E6E6"/>
<path d="M424.48 214.658C425.127 214.657 425.747 214.4 426.203 213.943C426.66 213.486 426.917 212.868 426.917 212.222C426.917 211.577 426.66 210.958 426.203 210.502C425.747 210.045 425.127 209.788 424.48 209.787H402.576C401.929 209.787 401.308 210.044 400.85 210.5C400.392 210.957 400.135 211.577 400.135 212.222C400.135 212.868 400.392 213.488 400.85 213.945C401.308 214.401 401.929 214.658 402.576 214.658H424.48Z" fill="#E6E6E6"/>
<path d="M479.711 200.309C480.359 200.309 480.979 200.052 481.437 199.595C481.895 199.139 482.152 198.519 482.152 197.873C482.152 197.227 481.895 196.608 481.437 196.151C480.979 195.694 480.359 195.438 479.711 195.438H402.576C401.929 195.438 401.308 195.694 400.85 196.151C400.392 196.608 400.135 197.227 400.135 197.873C400.135 198.519 400.392 199.139 400.85 199.595C401.308 200.052 401.929 200.309 402.576 200.309H479.711Z" fill="#E6E6E6"/>
<path d="M568.62 214.658C569.267 214.657 569.886 214.4 570.343 213.943C570.8 213.486 571.057 212.868 571.057 212.222C571.057 211.577 570.8 210.958 570.343 210.502C569.886 210.045 569.267 209.788 568.62 209.787H546.716C546.395 209.786 546.077 209.849 545.781 209.971C545.484 210.093 545.214 210.273 544.987 210.499C544.76 210.725 544.58 210.994 544.457 211.289C544.334 211.585 544.271 211.902 544.271 212.222C544.271 212.543 544.334 212.86 544.457 213.155C544.58 213.451 544.76 213.72 544.987 213.946C545.214 214.172 545.484 214.352 545.781 214.474C546.077 214.596 546.395 214.658 546.716 214.658H568.62Z" fill="#E6E6E6"/>
<path d="M623.851 200.309C624.498 200.309 625.119 200.052 625.577 199.595C626.035 199.139 626.292 198.519 626.292 197.873C626.292 197.227 626.035 196.608 625.577 196.151C625.119 195.694 624.498 195.438 623.851 195.438H546.716C546.069 195.438 545.448 195.694 544.99 196.151C544.532 196.608 544.275 197.227 544.275 197.873C544.275 198.519 544.532 199.139 544.99 199.595C545.448 200.052 546.069 200.309 546.716 200.309H623.851Z" fill="#E6E6E6"/>
<path d="M335.571 186.197C335.892 186.198 336.21 186.135 336.507 186.013C336.803 185.891 337.073 185.711 337.3 185.485C337.527 185.259 337.707 184.99 337.83 184.695C337.953 184.399 338.017 184.082 338.017 183.762C338.017 183.441 337.953 183.124 337.83 182.829C337.707 182.533 337.527 182.264 337.3 182.038C337.073 181.812 336.803 181.632 336.507 181.51C336.21 181.388 335.892 181.326 335.571 181.326H258.436C257.789 181.326 257.168 181.583 256.71 182.039C256.252 182.496 255.995 183.116 255.995 183.762C255.995 184.407 256.252 185.027 256.71 185.484C257.168 185.94 257.789 186.197 258.436 186.197H335.571Z" fill="#6C63FF"/>
<path d="M479.711 186.197C480.358 186.196 480.978 185.939 481.435 185.482C481.891 185.026 482.148 184.407 482.148 183.762C482.148 183.116 481.891 182.498 481.435 182.041C480.978 181.584 480.358 181.327 479.711 181.326H402.576C401.929 181.326 401.308 181.583 400.85 182.039C400.392 182.496 400.135 183.116 400.135 183.762C400.135 184.407 400.392 185.027 400.85 185.484C401.308 185.94 401.929 186.197 402.576 186.197H479.711Z" fill="#6C63FF"/>
<path d="M623.851 186.197C624.499 186.197 625.119 185.94 625.577 185.484C626.035 185.027 626.292 184.407 626.292 183.762C626.292 183.116 626.035 182.496 625.577 182.039C625.119 181.583 624.499 181.326 623.851 181.326H546.716C546.395 181.326 546.077 181.388 545.781 181.51C545.484 181.632 545.214 181.812 544.987 182.038C544.76 182.264 544.58 182.533 544.457 182.829C544.334 183.124 544.271 183.441 544.271 183.762C544.271 184.082 544.334 184.399 544.457 184.695C544.58 184.99 544.76 185.259 544.987 185.485C545.214 185.711 545.484 185.891 545.781 186.013C546.077 186.135 546.395 186.198 546.716 186.197H623.851Z" fill="#6C63FF"/>
<path d="M321.764 142.462C322.411 142.462 323.032 142.205 323.49 141.749C323.947 141.292 324.205 140.672 324.205 140.027C324.205 139.381 323.947 138.761 323.49 138.304C323.032 137.848 322.411 137.591 321.764 137.591H272.244C271.597 137.591 270.976 137.848 270.518 138.304C270.06 138.761 269.803 139.381 269.803 140.027C269.803 140.672 270.06 141.292 270.518 141.749C270.976 142.205 271.597 142.462 272.244 142.462H321.764Z" fill="#E6E6E6"/>
<path d="M321.764 128.113C322.411 128.113 323.032 127.856 323.49 127.4C323.947 126.943 324.205 126.323 324.205 125.677C324.205 125.031 323.947 124.412 323.49 123.955C323.032 123.499 322.411 123.242 321.764 123.242H272.244C271.597 123.242 270.976 123.499 270.518 123.955C270.06 124.412 269.803 125.031 269.803 125.677C269.803 126.323 270.06 126.943 270.518 127.4C270.976 127.856 271.597 128.113 272.244 128.113H321.764Z" fill="#E6E6E6"/>
<path d="M297.004 111.289C305.56 111.289 312.496 104.369 312.496 95.8331C312.496 87.2972 305.56 80.3774 297.004 80.3774C288.448 80.3774 281.512 87.2972 281.512 95.8331C281.512 104.369 288.448 111.289 297.004 111.289Z" fill="#6C63FF"/>
<path d="M465.903 142.462C466.551 142.462 467.172 142.205 467.63 141.749C468.087 141.292 468.345 140.672 468.345 140.027C468.345 139.381 468.087 138.761 467.63 138.304C467.172 137.848 466.551 137.591 465.903 137.591H416.384C415.737 137.591 415.116 137.848 414.658 138.304C414.2 138.761 413.943 139.381 413.943 140.027C413.943 140.672 414.2 141.292 414.658 141.749C415.116 142.205 415.737 142.462 416.384 142.462H465.903Z" fill="#E6E6E6"/>
<path d="M465.903 128.113C466.551 128.113 467.172 127.856 467.63 127.4C468.087 126.943 468.345 126.323 468.345 125.677C468.345 125.031 468.087 124.412 467.63 123.955C467.172 123.499 466.551 123.242 465.903 123.242H416.384C415.737 123.242 415.116 123.499 414.658 123.955C414.2 124.412 413.943 125.031 413.943 125.677C413.943 126.323 414.2 126.943 414.658 127.4C415.116 127.856 415.737 128.113 416.384 128.113H465.903Z" fill="#E6E6E6"/>
<path d="M441.144 111.289C449.7 111.289 456.635 104.369 456.635 95.8331C456.635 87.2972 449.7 80.3774 441.144 80.3774C432.588 80.3774 425.652 87.2972 425.652 95.8331C425.652 104.369 432.588 111.289 441.144 111.289Z" fill="#6C63FF"/>
<path d="M610.043 142.462C610.691 142.462 611.311 142.205 611.769 141.749C612.227 141.292 612.484 140.672 612.484 140.027C612.484 139.381 612.227 138.761 611.769 138.304C611.311 137.848 610.691 137.591 610.043 137.591H560.524C559.876 137.591 559.255 137.848 558.797 138.304C558.34 138.761 558.083 139.381 558.083 140.027C558.083 140.672 558.34 141.292 558.797 141.749C559.255 142.205 559.876 142.462 560.524 142.462H610.043Z" fill="#E6E6E6"/>
<path d="M610.043 128.113C610.691 128.113 611.311 127.856 611.769 127.4C612.227 126.943 612.484 126.323 612.484 125.677C612.484 125.031 612.227 124.412 611.769 123.955C611.311 123.499 610.691 123.242 610.043 123.242H560.524C559.876 123.242 559.255 123.499 558.797 123.955C558.34 124.412 558.083 125.031 558.083 125.677C558.083 126.323 558.34 126.943 558.797 127.4C559.255 127.856 559.876 128.113 560.524 128.113H610.043Z" fill="#E6E6E6"/>
<path d="M585.284 111.289C593.839 111.289 600.775 104.369 600.775 95.8331C600.775 87.2972 593.839 80.3774 585.284 80.3774C576.728 80.3774 569.792 87.2972 569.792 95.8331C569.792 104.369 576.728 111.289 585.284 111.289Z" fill="#6C63FF"/>
<path d="M115.091 359.141L123.39 363.657L118.109 380.971L109.81 381.724L105.282 371.938L115.091 359.141Z" fill="#FFB9B9"/>
<path d="M89.438 393.768V402.047L76.6117 401.295L76.7904 394.475L89.438 393.768Z" fill="#FFB9B9"/>
<path d="M118.109 259.778L113.582 316.235L99.2463 399.036L76.6117 396.025L84.1563 330.536L81.1383 270.317L118.109 259.778Z" fill="#2F2E41"/>
<path d="M57.7491 217.625L112.073 218.377L118.109 259.778L81.1385 277.092L72.0845 310.212L118.109 359.141L100.001 381.723C100.001 381.723 74.348 347.097 55.4856 327.526C36.6232 307.954 45.6772 248.487 45.6772 248.487L57.7491 217.625Z" fill="#2F2E41"/>
<path d="M90.1924 110.734C99.3597 110.734 106.791 103.32 106.791 94.1739C106.791 85.0278 99.3597 77.6135 90.1924 77.6135C81.0251 77.6135 73.5935 85.0278 73.5935 94.1739C73.5935 103.32 81.0251 110.734 90.1924 110.734Z" fill="#FFB9B9"/>
<path d="M96.2283 105.465V122.026L84.9109 140.091C84.9109 140.091 67.5575 127.295 71.33 124.284C75.1025 121.273 75.857 97.9376 75.857 97.9376L96.2283 105.465Z" fill="#FFB9B9"/>
<path d="M96.2284 119.015L107.546 132.564L103.019 226.657L67.5577 225.905L61.5217 143.856L69.0664 122.778L74.2419 115.753L83.402 129.553L96.2284 119.015Z" fill="white"/>
<path d="M114.336 167.943L122.636 199.559L114.336 231.174L127.917 249.24L139.989 192.031C139.989 192.031 130.935 145.361 130.181 140.092C129.426 134.822 127.917 134.069 127.917 134.069L121.881 134.822L114.336 167.943Z" fill="#2F2E41"/>
<path d="M53.9772 179.987L48.6955 189.773L47.1861 206.333L50.2041 225.152L39.6415 242.465L29.0789 195.042L40.3958 134.069H44.9232L53.9772 179.987Z" fill="#2F2E41"/>
<path d="M118.109 358.388C118.109 358.388 128.672 361.399 132.444 362.152C136.217 362.905 130.181 377.207 130.181 377.207C130.181 377.207 126.408 396.778 125.654 400.542C124.899 404.306 119.618 417.102 112.827 418.608C106.037 420.113 110.564 392.262 110.564 392.262C110.564 392.262 107.546 383.229 107.546 380.218C107.546 377.207 112.073 378.712 112.073 378.712C124.145 377.207 118.109 358.388 118.109 358.388Z" fill="#2F2E41"/>
<path d="M93.2104 416.35C92.4559 420.866 93.9649 420.866 81.8929 422.372C69.821 423.877 72.839 414.091 72.839 414.091C73.3437 409.478 74.3558 404.934 75.857 400.542C78.1205 394.52 90.1924 402.048 90.1924 402.048C90.1924 402.048 93.9649 411.833 93.2104 416.35Z" fill="#2F2E41"/>
<path d="M75.8373 98.4633L75.4441 105.158C75.4441 105.158 70.5755 94.1739 69.821 82.8827C69.0665 71.5915 81.893 69.3332 89.4379 68.5805C96.9829 67.8277 109.809 73.097 109.809 79.119C109.809 85.141 96.2284 83.6354 90.9469 82.13C85.6655 80.6245 83.402 93.4212 83.402 93.4212L80.384 94.1739L75.8373 98.4633Z" fill="#2F2E41"/>
<path d="M100.682 124.346L96.2284 119.015L83.4021 129.553L96.2284 138.586L100.682 124.346Z" fill="white"/>
<path d="M69.0664 122.779L74.3481 116.004L83.4021 129.553L72.0844 137.834L69.0664 122.779Z" fill="white"/>
<path d="M116.6 178.482L113.582 207.086L119.618 224.399L123.39 240.96C123.39 240.96 123.39 256.767 108.3 257.52C93.2104 258.273 80.3839 210.097 80.3839 210.097C80.3839 210.097 78.1205 220.635 76.6115 226.657C75.1025 232.679 49.4496 256.767 49.4496 256.767C49.4496 256.767 43.4137 256.015 38.1322 243.971C32.8507 231.927 48.6951 220.635 48.6951 220.635L53.2221 204.828L51.7131 185.256L41.1501 134.07L72.4617 117.885L69.0665 161.168L80.3839 195.042L97.3601 120.144L103.019 124.284L127.163 134.07L116.6 178.482Z" fill="#2F2E41"/>
<path d="M192.681 423H0V421.429H192.967L192.681 423Z" fill="#3F3D56"/>
</g>
<defs>
<clipPath id="clip0">
<rect width="688" height="423" fill="white"/>
</clipPath>
</defs>
</svg>
